HIERARCHY
ROOT Pelvis
{
	OFFSET 0.000000 0.000000 0.000000
	CHANNELS 6 Xposition Yposition Zposition Zrotation Yrotation Xrotation 
	JOINT Left_hip
	{
		OFFSET 0.067986 -0.089946 -0.007639
		CHANNELS 3 Zrotation Yrotation Xrotation
		JOINT Left_knee
		{
			OFFSET 0.036308 -0.388288 -0.004016
			CHANNELS 3 Zrotation Yrotation Xrotation
			JOINT Left_ankle
			{
				OFFSET -0.012264 -0.413250 -0.042878
				CHANNELS 3 Zrotation Yrotation Xrotation
				JOINT Left_foot
				{
					OFFSET 0.024043 -0.058563 0.118570
					CHANNELS 3 Zrotation Yrotation Xrotation
					End Site
					{
						OFFSET 0.000000 0.000000 0.000000
					}
				}
			}
		}
	}
	JOINT Right_hip
	{
		OFFSET -0.065648 -0.089374 -0.003858
		CHANNELS 3 Zrotation Yrotation Xrotation
		JOINT Right_knee
		{
			OFFSET -0.042132 -0.395021 -0.006361
			CHANNELS 3 Zrotation Yrotation Xrotation
			JOINT Right_ankle
			{
				OFFSET 0.014805 -0.413264 -0.041054
				CHANNELS 3 Zrotation Yrotation Xrotation
				JOINT Right_foot
				{
					OFFSET -0.021758 -0.049013 0.121832
					CHANNELS 3 Zrotation Yrotation Xrotation
					End Site
					{
						OFFSET 0.000000 0.000000 0.000000
					}
				}
			}
		}
	}
	JOINT Spine1
	{
		OFFSET -0.002755 0.104406 -0.022277
		CHANNELS 3 Zrotation Yrotation Xrotation
		JOINT Spine2
		{
			OFFSET 0.004136 0.129393 -0.002186
			CHANNELS 3 Zrotation Yrotation Xrotation
			JOINT Spine3
			{
				OFFSET 0.001906 0.049304 0.025578
				CHANNELS 3 Zrotation Yrotation Xrotation
				JOINT Neck
				{
					OFFSET -0.004620 0.210958 -0.044063
					CHANNELS 3 Zrotation Yrotation Xrotation
					JOINT Head
					{
						OFFSET 0.003833 0.067393 0.052435
						CHANNELS 3 Zrotation Yrotation Xrotation
						End Site
						{
							OFFSET 0.000000 0.000000 0.000000
						}
					}
				}
				JOINT Left_collar
				{
					OFFSET 0.070771 0.116689 -0.037192
					CHANNELS 3 Zrotation Yrotation Xrotation
					JOINT Left_shoulder
					{
						OFFSET 0.080652 0.031596 -0.005617
						CHANNELS 3 Zrotation Yrotation Xrotation
						JOINT Left_elbow
						{
							OFFSET 0.262654 -0.015020 -0.027939
							CHANNELS 3 Zrotation Yrotation Xrotation
							JOINT Left_wrist
							{
								OFFSET 0.250438 0.010062 -0.000990
								CHANNELS 3 Zrotation Yrotation Xrotation
								JOINT Left_palm
								{
									OFFSET 0.081198 -0.010037 -0.013706
									CHANNELS 3 Zrotation Yrotation Xrotation
									End Site
									{
										OFFSET 0.000000 0.000000 0.000000
									}
								}
							}
						}
					}
				}
				JOINT Right_collar
				{
					OFFSET -0.072972 0.115556 -0.040762
					CHANNELS 3 Zrotation Yrotation Xrotation
					JOINT Right_shoulder
					{
						OFFSET -0.082917 0.031841 -0.006673
						CHANNELS 3 Zrotation Yrotation Xrotation
						JOINT Right_elbow
						{
							OFFSET -0.252882 -0.013790 -0.020410
							CHANNELS 3 Zrotation Yrotation Xrotation
							JOINT Right_wrist
							{
								OFFSET -0.255570 0.009163 -0.005138
								CHANNELS 3 Zrotation Yrotation Xrotation
								JOINT Right_palm
								{
									OFFSET -0.080804 -0.007282 -0.010415
									CHANNELS 3 Zrotation Yrotation Xrotation
									End Site
									{
										OFFSET 0.000000 0.000000 0.000000
									}
								}
							}
						}
					}
				}
			}
		}
	}
}
MOTION
Frames: 15
Frame Time: 0.100000
0.000000 0.000000 0.000000 174.853647 24.164345 -19.019441 9.337345 7.374477 11.668361 -3.923132 -14.020195 -4.469541 -8.029237 14.113743 -6.004736 4.410507 0.236804 0.393834 -6.330862 -6.638706 10.657072 5.414687 11.326197 -0.054706 12.985110 -11.991922 -9.504684 -8.897453 8.579697 2.391653 2.541146 0.980664 8.998751 0.312434 -3.319103 0.043768 1.141760 -0.131632 2.838698 0.937077 3.156467 6.670156 1.335924 1.382441 -0.210001 -4.786601 1.077202 -8.271619 -0.563696 1.694755 -14.901105 2.629728 -5.317126 -9.124552 2.751629 -8.708604 22.039682 -6.622866 -1.593400 -13.507455 3.706509 -0.547007 -6.584627 0.162305 -3.299023 -12.668496 -4.365421 6.177097 -9.447659 -1.291284 3.726439 17.275731 7.028752 3.911766 -3.662099 
-0.000401 -0.000018 0.000345 174.852293 24.084304 -19.010715 9.348664 7.391624 11.706962 -3.934051 -14.015118 -4.432897 -7.954313 14.126818 -6.066943 4.310776 0.290897 0.404619 -6.317667 -6.587906 10.627690 5.422935 11.342424 0.030102 12.913678 -11.948792 -9.537268 -8.757640 8.486193 2.405157 2.565397 0.987972 9.052622 0.290774 -3.255081 -0.004833 1.140182 -0.101083 2.817178 0.930758 3.160041 6.680037 1.299823 1.408194 -0.283944 -4.823527 1.149051 -8.318609 -0.576461 1.742194 -14.931805 2.705199 -5.326662 -9.089527 2.684906 -8.714983 22.192424 -6.605710 -1.581670 -13.544456 3.713747 -0.546221 -6.603367 0.176699 -3.268616 -12.704593 -4.387085 6.173151 -9.465120 -1.277737 3.717757 17.302797 7.024910 3.908036 -3.667806 
-0.001098 -0.000053 0.000779 174.835684 24.073127 -19.035206 9.368397 7.421556 11.812886 -3.949183 -14.036016 -4.481558 -7.946304 14.090463 -6.104644 4.292490 0.334856 0.405727 -6.344064 -6.590573 10.688143 5.429437 11.314642 0.053832 12.886883 -11.907506 -9.564028 -8.685856 8.444167 2.424147 2.601545 1.000417 9.044525 0.291050 -3.221239 0.059823 1.126902 -0.077714 2.799132 0.941588 3.188454 6.732837 1.223745 1.381076 -0.234017 -4.883820 1.154918 -8.301752 -0.607320 1.786282 -14.878559 2.733022 -5.311008 -8.790903 2.409032 -8.692239 22.553352 -6.607197 -1.571728 -13.677013 3.778621 -0.513037 -6.580832 0.189187 -3.266336 -12.738342 -4.393288 6.117015 -9.430015 -1.136497 3.679511 17.344991 7.040145 3.897891 -3.694160 
-0.001379 -0.000164 0.000536 174.898317 23.973455 -18.976710 9.440873 7.493647 11.802406 -4.105361 -14.009137 -4.464300 -8.054858 14.017555 -6.011008 4.362960 0.323850 0.302778 -6.376843 -6.596483 10.393607 5.498677 11.269683 0.513104 12.841272 -11.838690 -9.693148 -8.660750 8.450268 2.411807 2.757504 0.948860 9.148839 0.272102 -3.114588 0.075753 1.095906 -0.024809 2.773640 0.840017 3.273633 6.666597 1.063176 1.459880 -0.158396 -5.017258 1.222552 -8.315552 -0.649429 1.903651 -14.815397 2.828568 -5.434448 -8.818997 2.415964 -8.733119 22.589047 -6.617191 -1.551903 -13.708140 3.853688 -0.458954 -6.537460 0.023929 -3.233241 -12.777256 -4.357458 6.204376 -9.433493 -1.091490 3.734737 17.397929 6.991394 3.856554 -3.650849 
0.002455 -0.000416 0.000223 174.768890 24.614127 -18.910289 9.658761 7.392282 11.150353 -4.204337 -14.184331 -4.088791 -8.462658 13.707188 -5.623298 4.675353 0.368055 0.024744 -6.052846 -6.779218 9.742090 5.623676 10.715579 1.442696 12.580983 -11.995064 -10.048915 -8.572798 8.467804 2.526496 2.735169 0.827572 9.552834 0.305879 -3.175431 0.065568 1.143300 -0.143768 2.725823 0.909545 3.251932 6.310025 1.152892 1.325479 -0.252474 -5.337011 1.214566 -8.261784 -0.633027 1.991521 -14.788360 3.527285 -6.483293 -8.937796 2.498534 -8.783485 22.699957 -6.537825 -1.556716 -13.734150 4.088096 -0.499343 -6.562407 0.147508 -3.503762 -12.652237 -4.791265 7.139697 -9.363149 -0.921101 3.814195 17.249288 6.825767 3.797198 -3.381587 
0.010573 -0.000315 0.001263 174.664452 25.717907 -19.006362 9.967340 7.184212 10.750418 -4.029784 -14.347678 -4.213873 -9.002759 13.065869 -4.951905 5.146872 0.964090 -0.422783 -5.738368 -6.894718 9.782435 5.882029 9.910218 1.470839 11.963028 -12.020430 -10.361063 -7.923133 8.159406 3.049585 2.681539 0.687421 9.929111 0.279743 -3.259040 0.423366 1.140152 -0.360383 2.556921 1.165330 3.176439 5.979797 0.988175 1.033963 -0.213766 -6.320760 1.448750 -8.029810 -1.002613 1.971896 -14.491358 6.057910 -10.630913 -8.757533 1.719644 -8.946921 22.896123 -6.561229 -1.553408 -13.905170 4.775759 -0.640744 -6.631072 0.571045 -3.630030 -12.363298 -6.860236 11.029047 -10.024475 -0.589403 4.116073 16.252002 6.970504 3.756825 -3.069405 
0.021605 0.000023 0.002266 174.853142 26.644916 -19.104363 10.188172 6.849350 10.164834 -3.905202 -14.177458 -3.904097 -9.437760 12.169923 -4.087882 5.656928 2.174090 -1.301168 -5.547118 -6.905872 10.050487 6.191874 9.056902 1.046565 11.100193 -11.724325 -10.506776 -7.132978 7.509385 3.546009 2.941249 0.637875 10.275312 0.102433 -3.108973 0.963595 1.020236 -0.447120 2.319252 1.288828 2.777666 5.672188 0.639478 0.701402 -0.119536 -7.787359 1.983774 -7.745268 -2.576364 1.515877 -14.027105 10.390754 -17.326076 -9.860136 1.283921 -9.001920 21.333668 -6.888456 -1.638541 -13.707102 5.500316 -0.813468 -6.631546 1.800633 -3.218568 -11.807610 -11.190068 18.578506 -12.264719 -1.080341 4.747727 13.957068 7.642471 3.874734 -2.851394 
0.034636 0.000789 0.003460 175.106932 27.948050 -19.321178 10.349400 6.339667 9.560829 -3.734301 -13.936806 -3.612177 -10.010465 11.025301 -3.014654 6.456371 3.570938 -2.443485 -5.381239 -6.843986 10.348573 6.568128 7.910508 0.844089 9.939885 -11.305836 -10.814981 -6.178077 6.447872 3.964358 3.347051 0.545585 10.543200 0.033380 -2.970340 1.666909 0.989937 -0.556072 2.071700 1.334500 2.271872 5.160852 0.139456 0.383829 -0.162410 -9.370306 2.543857 -7.253608 -5.759739 0.544195 -13.006076 15.872023 -25.815103 -11.961008 1.503978 -9.249777 17.730114 -7.194962 -1.689991 -13.014746 6.153797 -0.805005 -6.579354 3.994104 -1.972350 -10.826387 -17.774557 28.490264 -15.954184 -2.434944 5.726920 11.001582 8.350000 4.050094 -2.605172 
0.049439 0.001926 0.004216 175.293965 30.085876 -19.668186 10.404755 5.716838 8.305607 -3.688557 -13.779134 -2.543923 -10.777639 9.284180 -1.725851 7.468756 5.207178 -3.930843 -5.272920 -6.981995 10.801315 6.920957 6.137440 0.551447 8.727111 -10.760545 -11.115255 -5.421841 5.014317 4.226163 3.773078 0.588761 11.023421 0.152323 -3.028693 2.541584 1.088065 -0.744872 1.698866 1.217415 1.819160 4.159676 -0.416933 -0.187500 -0.707560 -10.923788 2.593142 -6.336158 -10.417417 -0.908062 -10.876792 22.393537 -36.439295 -13.212200 2.328812 -9.626022 14.677730 -7.915148 -1.914610 -12.784988 7.034585 -0.502591 -6.382514 7.936801 -0.489837 -9.276186 -27.593143 39.808634 -22.047558 -4.555224 6.912644 7.707603 9.509006 4.454797 -2.740346 
0.064259 0.003573 0.003280 175.519444 32.872214 -20.150396 10.080630 4.759273 5.976535 -4.009416 -13.613614 0.325083 -11.448761 7.191730 -0.583037 8.357278 6.975002 -5.722694 -5.506350 -7.313720 11.451684 7.258592 4.100913 0.081699 7.762485 -10.188229 -11.325189 -5.172848 3.671689 4.247344 4.378834 0.756755 11.834529 0.357040 -3.189307 3.564954 1.237298 -0.827203 1.411931 0.867946 1.338382 2.624499 -0.944638 -0.964070 -1.467305 -12.717226 1.990400 -4.995612 -16.088496 -2.680020 -7.411412 28.526365 -48.613341 -13.088414 2.962909 -10.504091 12.545002 -8.417210 -2.103784 -12.264384 8.458901 0.580635 -5.723232 12.853750 1.037560 -6.678141 -37.964552 50.593029 -27.899967 -6.504604 8.513010 6.678381 10.361367 4.986677 -2.934031 
0.078115 0.005204 -0.002842 176.044917 36.236490 -20.313605 8.847934 3.295933 1.230458 -5.030742 -12.610749 6.466013 -11.798496 4.774826 1.216535 8.695088 8.705972 -8.115875 -6.228930 -7.786635 11.462857 7.283579 1.529309 0.064797 6.798578 -9.576454 -11.138429 -5.207516 2.165922 3.830377 5.191698 1.055540 13.383098 0.588999 -3.390754 4.170161 1.435431 -0.945150 1.120971 -0.036559 0.446387 0.597755 -1.417221 -1.830105 -2.010521 -14.533673 0.942173 -3.364561 -23.675602 -5.134703 -2.921567 33.144317 -60.138138 -11.360471 1.538334 -11.157848 10.278827 -8.035005 -1.838310 -10.470818 10.350304 2.391709 -4.624392 19.271263 3.108208 -3.119159 -44.879779 58.856502 -29.878913 -5.057224 9.500568 7.988294 9.629179 5.294031 -2.317734 
0.087919 0.006676 -0.010897 176.486098 39.876414 -20.723899 7.398055 1.595918 -3.971177 -6.332521 -11.541560 13.694830 -12.399168 2.575065 3.908927 8.895358 10.132564 -10.738882 -7.273616 -8.433869 11.902628 7.122894 -0.800400 -0.137680 5.966345 -9.363845 -10.583170 -5.506518 1.218717 3.076859 6.224010 1.488202 15.311548 1.078037 -3.657113 5.075177 1.899300 -0.922923 0.960384 -1.412368 -0.613908 -1.680344 -1.672244 -2.910216 -3.201913 -16.299704 -1.073025 -1.345403 -31.687068 -7.350690 2.774227 28.588458 -69.055329 -2.117805 1.210851 -11.717193 7.804949 -7.497905 -1.689086 -8.776449 12.814492 5.136961 -2.731883 25.908501 4.622495 1.052871 -40.815817 63.454721 -23.541871 -5.155330 9.926466 9.242164 9.056551 5.695282 -2.495370 
0.091153 0.007322 -0.018707 177.212753 41.183166 -20.229645 6.190087 0.355102 -6.481003 -6.923619 -11.059934 16.857967 -11.395603 1.425965 2.861781 8.360152 10.134112 -11.091456 -8.252045 -8.625255 11.324845 6.787533 -2.269751 0.126918 6.055765 -8.390825 -9.988839 -5.530610 0.251447 2.614287 7.014172 2.128589 16.767718 1.708397 -3.214314 5.519368 2.412203 -0.192037 0.718756 -2.289765 -1.048235 -3.243857 -1.707371 -3.962142 -3.868049 -17.885209 -3.050102 0.361228 -38.293918 -7.720775 8.974446 5.413745 -74.000853 24.890301 1.209636 -12.807459 7.517217 -7.305166 -1.681582 -7.980650 15.537886 7.937929 -0.087673 31.278403 5.100337 5.261430 -24.990775 64.994345 -5.416801 -4.398594 10.335777 12.338597 8.391234 6.222647 -3.361639 
0.087504 0.007595 -0.026067 177.862018 40.278016 -19.063314 5.809822 -0.304661 -6.275834 -7.153355 -12.584817 16.237058 -11.327576 0.429973 1.596970 8.960971 10.200199 -10.959705 -8.838074 -8.167623 9.733832 6.501994 -2.566435 0.721056 6.713046 -7.430299 -9.383193 -5.997695 -0.221465 1.953611 7.201632 2.015930 16.932474 2.219650 -2.928749 5.934305 2.726963 0.053213 0.721875 -2.306585 0.054241 -3.577944 -2.234308 -4.071791 -3.779417 -18.768418 -3.247639 1.759456 -43.369848 -6.446139 13.435664 -17.171557 -73.229328 49.688895 1.342770 -13.108533 7.368468 -7.072742 -1.688968 -8.187929 17.558391 9.132721 1.534174 36.858281 6.082082 9.768966 -8.588504 65.055364 12.684126 -3.698734 10.299548 13.681480 7.924996 6.505467 -4.131441 
0.079203 0.009062 -0.035688 177.892774 37.259621 -18.077968 6.123232 -0.107559 -4.698076 -6.996059 -13.979020 14.990928 -10.472295 0.306467 -1.413384 9.384735 10.285307 -9.860135 -8.854536 -7.335607 7.432183 6.465830 -1.931698 1.614546 7.616163 -6.339277 -8.708058 -6.260328 -0.465102 1.547977 6.931670 1.535231 17.033625 2.736826 -2.931343 6.456050 2.983966 -0.119416 0.790049 -1.779880 1.583715 -2.696716 -2.744899 -3.667286 -3.416074 -19.325425 -3.469903 2.976604 -45.389746 -4.879800 15.801119 -29.803329 -70.084847 63.094232 0.547881 -13.251802 8.607901 -7.059485 -1.806014 -9.295302 18.656183 9.537949 2.676923 40.054503 6.118270 13.587179 6.660238 66.564463 29.790887 -3.034165 10.622553 14.074920 8.069707 6.843267 -5.013155 
